<svg width="400" height="400" xmlns="http://www.w3.org/2000/svg" stroke="null" style="vector-effect: non-scaling-stroke;">
 <!-- Created with UXWing SVG Editor - https://uxwing.com/svg-icon-editor/ -->

 <g stroke="null">
  <title stroke="null">background</title>
  <rect stroke="null" fill="none" id="canvas_background" height="402" width="402" y="-1" x="-1"/>
  <g stroke="null" style="vector-effect: non-scaling-stroke;" display="none" overflow="visible" y="0" x="0" height="100%" width="100%" id="canvasGrid">
   <rect fill="url(#gridpattern)" stroke-width="0" y="0" x="0" height="100%" width="100%"/>
  </g>
 </g>
 <g stroke="null">
  <title stroke="null">Layer 1</title>
  <!-- Created with UXWing SVG Editor - https://uxwing.com/svg-icon-editor/ -->
  <!-- Created with UXWing SVG Editor - https://uxwing.com/svg-icon-editor/ -->
  <!-- Created with UXWing SVG Editor - https://uxwing.com/svg-icon-editor/ -->
  <!-- Created with UXWing SVG Editor - https://uxwing.com/svg-icon-editor/ -->
  <!-- Created with UXWing SVG Editor - https://uxwing.com/svg-icon-editor/ -->
  <!-- Created with UXWing SVG Editor - https://uxwing.com/svg-icon-editor/ -->
  <!-- Created with UXWing SVG Editor - https://uxwing.com/svg-icon-editor/ -->
  <!-- Created with UXWing SVG Editor - https://uxwing.com/svg-icon-editor/ -->
  <!-- Created with UXWing SVG Editor - https://uxwing.com/svg-icon-editor/ -->
  <!-- Created with UXWing SVG Editor - https://uxwing.com/svg-icon-editor/ -->
  <!-- Created with UXWing SVG Editor - https://uxwing.com/svg-icon-editor/ -->
  <!-- Created with UXWing SVG Editor - https://uxwing.com/svg-icon-editor/ -->
  <!-- Created with UXWing SVG Editor - https://uxwing.com/svg-icon-editor/ -->
  <!-- Created with UXWing SVG Editor - https://uxwing.com/svg-icon-editor/ -->
  <!-- Created with UXWing SVG Editor - https://uxwing.com/svg-icon-editor/ -->
  <g stroke="null" id="svg_282">
   <g stroke="null" transform="matrix(2.040819470494936,0,0,2.040819470494936,-7528.981252110945,-7519.682292301432) " id="svg_279">
    <title stroke="null" transform="translate(4.4099931716918945,-2.44999623298645) translate(3494.5,0) translate(0,3584.5) ">background</title>
    <rect stroke="null" x="3497.909993" y="3581.050004" width="582" height="402" id="svg_277" fill="none"/>
    <g stroke="null" id="svg_276" display="none">
     <rect stroke="null" id="svg_280" width="400" height="400" x="3498.909993" y="3582.050004" stroke-width="0" fill="url(#gridpattern)"/>
    </g>
   </g>
   <g stroke="null" transform="matrix(2.040819470494936,0,0,2.040819470494936,-7528.981252110945,-7519.682292301432) " id="svg_281">
    <title stroke="null" transform="translate(4.4099931716918945,-2.44999623298645) translate(3494.5,0) translate(0,3584.5) ">Layer 1</title>
    <style stroke="null" transform="translate(4.4099931716918945,-2.44999623298645) translate(3494.5,0) translate(0,3584.5) " type="text/css">.st0{fill-rule:evenodd;clip-rule:evenodd;}</style>
    <style stroke="null" transform="translate(4.4099931716918945,-2.44999623298645) translate(3494.5,0) translate(0,3584.5) " type="text/css">.st0{fill-rule:evenodd;clip-rule:evenodd;}</style>
    <style stroke="null" transform="translate(4.4099931716918945,-2.44999623298645) translate(3494.5,0) translate(0,3584.5) " type="text/css">.st0{fill-rule:evenodd;clip-rule:evenodd;}</style>
    <style stroke="null" transform="translate(4.4099931716918945,-2.44999623298645) translate(3494.5,0) translate(0,3584.5) " type="text/css">.st0{fill-rule:evenodd;clip-rule:evenodd;}</style>
    <style stroke="null" transform="translate(4.4099931716918945,-2.44999623298645) translate(3494.5,0) translate(0,3584.5) " type="text/css">.st0{fill-rule:evenodd;clip-rule:evenodd;}</style>
    <style stroke="null" transform="translate(4.4099931716918945,-2.44999623298645) translate(3494.5,0) translate(0,3584.5) " type="text/css">.st0{fill-rule:evenodd;clip-rule:evenodd;}</style>
    <style stroke="null" transform="translate(4.4099931716918945,-2.44999623298645) translate(3494.5,0) translate(0,3584.5) " type="text/css">.st0{fill-rule:evenodd;clip-rule:evenodd;}</style>
    <style stroke="null" transform="translate(4.4099931716918945,-2.44999623298645) translate(3494.5,0) translate(0,3584.5) " type="text/css">.st0{fill-rule:evenodd;clip-rule:evenodd;}</style>
    <!-- Created with UXWing SVG Editor - https://uxwing.com/svg-icon-editor/ -->
    <!-- Created with UXWing SVG Editor - https://uxwing.com/svg-icon-editor/ -->
    <!-- Created with UXWing SVG Editor - https://uxwing.com/svg-icon-editor/ -->
    <!-- Created with UXWing SVG Editor - https://uxwing.com/svg-icon-editor/ -->
    <!-- Created with UXWing SVG Editor - https://uxwing.com/svg-icon-editor/ -->
    <!-- Created with UXWing SVG Editor - https://uxwing.com/svg-icon-editor/ -->
    <g stroke="null" id="svg_273">
     <g stroke="null" id="svg_274" transform="matrix(1.472448642303391,0,0,1.472448642303391,0,0) ">
      <path stroke="null" class="st0" d="m2558.708419,2509.230428c3.17,13.57 9.96,25.71 17.08,36.7c1.06,-1.6 2.18,-3.24 3.33,-4.91c6.39,-9.34 13.67,-19.99 16.5,-32.26c0.26,-1.15 1.4,-1.86 2.55,-1.6c0.82,0.19 1.42,0.82 1.6,1.59c2.85,12.21 10.12,22.86 16.51,32.21c6.35,9.3 11.87,17.39 11.87,25.08c0,14.27 -7.93,23.42 -18.07,27.43c-3.53,1.4 -7.33,2.16 -11.15,2.29c-5.24,47.32 -80.67,45.57 -80.67,-5.27c0,-20.8 32.31,-46.03 40.45,-81.26l0,0zm19.63,40.57c10.49,15.69 20.87,28.96 20.87,40.69c0,0.34 -0.02,0.66 -0.02,0.99c3.2,-0.16 6.37,-0.81 9.31,-1.98c8.63,-3.41 15.37,-11.23 15.37,-23.46c0,-6.38 -5.17,-13.96 -11.12,-22.68c-5.39,-7.9 -11.39,-16.69 -15.06,-26.72c-3.66,10.09 -9.67,18.88 -15.07,26.77c-1.49,2.2 -2.95,4.33 -4.28,6.39l0,0zm-44.27,34.78c-0.2,-2.26 1.46,-4.25 3.72,-4.46c2.26,-0.21 4.25,1.46 4.46,3.72c0.51,5.46 1.7,10.48 3.99,14.82c2.21,4.19 5.48,7.79 10.22,10.57c1.96,1.14 2.61,3.66 1.47,5.61c-1.15,1.96 -3.66,2.61 -5.61,1.47c-6.17,-3.62 -10.45,-8.32 -13.34,-13.82c-2.84,-5.36 -4.3,-11.42 -4.91,-17.91l0,0l0,0z" id="svg_275" fill="#ffffff"/>
     </g>
    </g>
   </g>
  </g>
 </g>
</svg>