<svg width="400" height="400" xmlns="http://www.w3.org/2000/svg" stroke="null" style="vector-effect: non-scaling-stroke;">
 <!-- Created with UXWing SVG Editor - https://uxwing.com/svg-icon-editor/ -->

 <g stroke="null">
  <title stroke="null">background</title>
  <rect stroke="null" fill="none" id="canvas_background" height="402" width="402" y="-1" x="-1"/>
  <g stroke="null" style="vector-effect: non-scaling-stroke;" display="none" overflow="visible" y="0" x="0" height="100%" width="100%" id="canvasGrid">
   <rect fill="url(#gridpattern)" stroke-width="0" y="0" x="0" height="100%" width="100%"/>
  </g>
 </g>
 <g stroke="null">
  <title stroke="null">Layer 1</title>
  <!-- Created with UXWing SVG Editor - https://uxwing.com/svg-icon-editor/ -->
  <!-- Created with UXWing SVG Editor - https://uxwing.com/svg-icon-editor/ -->
  <!-- Created with UXWing SVG Editor - https://uxwing.com/svg-icon-editor/ -->
  <!-- Created with UXWing SVG Editor - https://uxwing.com/svg-icon-editor/ -->
  <!-- Created with UXWing SVG Editor - https://uxwing.com/svg-icon-editor/ -->
  <!-- Created with UXWing SVG Editor - https://uxwing.com/svg-icon-editor/ -->
  <!-- Created with UXWing SVG Editor - https://uxwing.com/svg-icon-editor/ -->
  <!-- Created with UXWing SVG Editor - https://uxwing.com/svg-icon-editor/ -->
  <!-- Created with UXWing SVG Editor - https://uxwing.com/svg-icon-editor/ -->
  <!-- Created with UXWing SVG Editor - https://uxwing.com/svg-icon-editor/ -->
  <!-- Created with UXWing SVG Editor - https://uxwing.com/svg-icon-editor/ -->
  <!-- Created with UXWing SVG Editor - https://uxwing.com/svg-icon-editor/ -->
  <!-- Created with UXWing SVG Editor - https://uxwing.com/svg-icon-editor/ -->
  <!-- Created with UXWing SVG Editor - https://uxwing.com/svg-icon-editor/ -->
  <!-- Created with UXWing SVG Editor - https://uxwing.com/svg-icon-editor/ -->
  <!-- Created with UXWing SVG Editor - https://uxwing.com/svg-icon-editor/ -->
  <g stroke="null" id="svg_299">
   <g stroke="null" transform="matrix(1.0662118849162454,0,0,1.0662118849162454,-3791.7258690974345,-3865.4521531697474) " id="svg_296">
    <title fill="none" stroke="#ff7f00" transform="translate(-4.547473508864641e-13,-4.547473508864641e-13) translate(-39.72290802001953,31.360191345214844) translate(3494.5,0) translate(0,3584.5) ">background</title>
    <rect stroke="#ff7f00" x="3453.777092" y="3614.860191" width="582" height="402" id="svg_294" fill="none"/>
    <g stroke="null" id="svg_293" display="none">
     <rect stroke="#ff7f00" id="svg_297" width="400" height="400" x="3454.777092" y="3615.860191" stroke-width="0" fill="none"/>
    </g>
   </g>
   <g stroke="null" transform="matrix(0.956626801036538,0,0,0.956626801036538,-3380.3541518101974,-3447.982797339377) " id="svg_298">
    <title fill="#ff7f00" transform="translate(-39.72290802001953,31.360191345214844) translate(3494.5,0) translate(0,3584.5) ">Layer 1</title>
    <style fill="#ff7f00" transform="translate(-39.72290802001953,31.360191345214844) translate(3494.5,0) translate(0,3584.5) " type="text/css">.st0{fill-rule:evenodd;clip-rule:evenodd;}</style>
    <style fill="#ff7f00" transform="translate(-39.72290802001953,31.360191345214844) translate(3494.5,0) translate(0,3584.5) " type="text/css">.st0{fill-rule:evenodd;clip-rule:evenodd;}</style>
    <style fill="#ff7f00" transform="translate(-39.72290802001953,31.360191345214844) translate(3494.5,0) translate(0,3584.5) " type="text/css">.st0{fill-rule:evenodd;clip-rule:evenodd;}</style>
    <style fill="#ff7f00" transform="translate(-39.72290802001953,31.360191345214844) translate(3494.5,0) translate(0,3584.5) " type="text/css">.st0{fill-rule:evenodd;clip-rule:evenodd;}</style>
    <style fill="#ff7f00" transform="translate(-39.72290802001953,31.360191345214844) translate(3494.5,0) translate(0,3584.5) " type="text/css">.st0{fill-rule:evenodd;clip-rule:evenodd;}</style>
    <style fill="#ff7f00" transform="translate(-39.72290802001953,31.360191345214844) translate(3494.5,0) translate(0,3584.5) " type="text/css">.st0{fill-rule:evenodd;clip-rule:evenodd;}</style>
    <style fill="#ff7f00" transform="translate(-39.72290802001953,31.360191345214844) translate(3494.5,0) translate(0,3584.5) " type="text/css">.st0{fill-rule:evenodd;clip-rule:evenodd;}</style>
    <style fill="#ff7f00" transform="translate(-39.72290802001953,31.360191345214844) translate(3494.5,0) translate(0,3584.5) " type="text/css">.st0{fill-rule:evenodd;clip-rule:evenodd;}</style>
    <style fill="#ff7f00" transform="translate(-39.72290802001953,31.360191345214844) translate(3494.5,0) translate(0,3584.5) " type="text/css">.st0{fill-rule:evenodd;clip-rule:evenodd;}</style>
    <style fill="#ff7f00" transform="translate(-39.72290802001953,31.360191345214844) translate(3494.5,0) translate(0,3584.5) " type="text/css">.st0{fill-rule:evenodd;clip-rule:evenodd;}</style>
    <style fill="#ff7f00" transform="translate(-39.72290802001953,31.360191345214844) translate(3494.5,0) translate(0,3584.5) " type="text/css">.st0{fill-rule:evenodd;clip-rule:evenodd;}</style>
    <style fill="#ff7f00" transform="translate(-39.72290802001953,31.360191345214844) translate(3494.5,0) translate(0,3584.5) " type="text/css">.st0{fill-rule:evenodd;clip-rule:evenodd;}</style>
    <!-- Created with UXWing SVG Editor - https://uxwing.com/svg-icon-editor/ -->
    <!-- Created with UXWing SVG Editor - https://uxwing.com/svg-icon-editor/ -->
    <!-- Created with UXWing SVG Editor - https://uxwing.com/svg-icon-editor/ -->
    <!-- Created with UXWing SVG Editor - https://uxwing.com/svg-icon-editor/ -->
    <!-- Created with UXWing SVG Editor - https://uxwing.com/svg-icon-editor/ -->
    <!-- Created with UXWing SVG Editor - https://uxwing.com/svg-icon-editor/ -->
    <!-- Created with UXWing SVG Editor - https://uxwing.com/svg-icon-editor/ -->
    <!-- Created with UXWing SVG Editor - https://uxwing.com/svg-icon-editor/ -->
    <!-- Created with UXWing SVG Editor - https://uxwing.com/svg-icon-editor/ -->
    <!-- Created with UXWing SVG Editor - https://uxwing.com/svg-icon-editor/ -->
    <g stroke="null" id="svg_290">
     <g stroke="null" id="svg_291" transform="matrix(3.204779316092754,0,0,3.204779316092754,0,0) ">
      <path d="m1137.64766,1129.237956l61.69,0c1.76,0 3.36,0.72 4.52,1.87c1.16,1.16 1.88,2.76 1.88,4.52l0,25.83l0,76.76c0,1.76 -0.72,3.36 -1.88,4.52c-1.16,1.16 -2.76,1.87 -4.52,1.87l-5.08,0l0,2.83c0,2.57 -2.1,4.68 -4.67,4.68l0,0c-2.57,0 -4.67,-2.1 -4.67,-4.68l0,-2.83l-32.66,0l0,2.83c0,2.57 -2.1,4.68 -4.67,4.68l0,0c-2.57,0 -4.67,-2.1 -4.67,-4.68l0,-2.83l-5.27,0c-1.76,0 -3.36,-0.72 -4.52,-1.87c-1.15,-1.16 -1.87,-2.76 -1.87,-4.52l0,-76.76l0,-25.83c0,-1.76 0.72,-3.36 1.87,-4.52c1.16,-1.15 2.76,-1.87 4.52,-1.87l0,0l0,0zm32.36,65.12c5.83,-5.53 6.38,-1.8 0,4.26l0,6.68l5.84,-3.37c2.04,-8.51 5.54,-9.83 3.69,-2.13c5.94,-3.43 7.41,-0.7 1.51,2.7c7.7,2.28 4.76,4.63 -3.69,2.13l-5.77,3.33l5.83,3.36c8.39,-2.48 11.29,-0.12 3.69,2.13c5.94,3.43 4.32,6.07 -1.58,2.66c1.88,7.82 -1.63,6.42 -3.69,-2.13l-5.83,-3.36l0,6.71c6.38,6.06 5.83,9.79 0,4.26c0,6.86 -3.1,6.96 -3.1,0.04c-5.74,5.46 -6.35,1.77 0,-4.26l0,-6.71l-5.75,3.32c-2.06,8.55 -5.57,9.95 -3.69,2.13c-5.93,3.43 -7.57,0.8 -1.58,-2.66c-7.59,-2.25 -4.71,-4.62 3.69,-2.13l5.83,-3.36l-5.77,-3.33c-8.44,2.5 -11.39,0.15 -3.69,-2.13c-5.94,-3.43 -4.47,-6.16 1.51,-2.7c-1.85,-7.71 1.64,-6.38 3.69,2.13l5.77,3.33l0,-6.68c-6.35,-6.03 -5.75,-9.71 0,-4.26c0,-6.86 3.09,-6.77 3.09,0.04l0,0zm-28.13,-23.44c0,-1.4 1.13,-2.53 2.53,-2.53s2.53,1.13 2.53,2.53l0,16.18c0,1.4 -1.13,2.53 -2.53,2.53s-2.53,-1.13 -2.53,-2.53l0,-16.18l0,0l0,0zm0,-30.86c0,-1.4 1.13,-2.53 2.53,-2.53s2.53,1.13 2.53,2.53l0,10.71c0,1.4 -1.13,2.53 -2.53,2.53s-2.53,-1.13 -2.53,-2.53l0,-10.71l0,0l0,0zm-5.55,18.86l64.35,0l0,-23.29c0,-0.36 -0.15,-0.7 -0.4,-0.94c-0.24,-0.24 -0.57,-0.4 -0.94,-0.4l-61.69,0c-0.36,0 -0.7,0.15 -0.94,0.4c-0.24,0.24 -0.4,0.57 -0.4,0.94l0,23.29l0.02,0l0,0zm64.34,5.07l-64.34,0l0,74.22c0,0.36 0.15,0.7 0.4,0.94c0.24,0.24 0.57,0.4 0.94,0.4l61.68,0c0.36,0 0.7,-0.15 0.94,-0.4c0.24,-0.24 0.4,-0.57 0.4,-0.94l0,-74.22l-0.02,0l0,0z" id="svg_292" fill="#ff7f00"/>
     </g>
    </g>
   </g>
  </g>
 </g>
</svg>