<svg width="400" height="400" xmlns="http://www.w3.org/2000/svg" stroke="null" style="vector-effect: non-scaling-stroke;">
 <!-- Created with UXWing SVG Editor - https://uxwing.com/svg-icon-editor/ -->

 <g stroke="null">
  <title stroke="null">background</title>
  <rect stroke="null" fill="none" id="canvas_background" height="402" width="402" y="-1" x="-1"/>
  <g stroke="null" style="vector-effect: non-scaling-stroke;" display="none" overflow="visible" y="0" x="0" height="100%" width="100%" id="canvasGrid">
   <rect fill="url(#gridpattern)" stroke-width="0" y="0" x="0" height="100%" width="100%"/>
  </g>
 </g>
 <g stroke="null">
  <title stroke="null">Layer 1</title>
  <!-- Created with UXWing SVG Editor - https://uxwing.com/svg-icon-editor/ -->
  <!-- Created with UXWing SVG Editor - https://uxwing.com/svg-icon-editor/ -->
  <!-- Created with UXWing SVG Editor - https://uxwing.com/svg-icon-editor/ -->
  <!-- Created with UXWing SVG Editor - https://uxwing.com/svg-icon-editor/ -->
  <!-- Created with UXWing SVG Editor - https://uxwing.com/svg-icon-editor/ -->
  <!-- Created with UXWing SVG Editor - https://uxwing.com/svg-icon-editor/ -->
  <!-- Created with UXWing SVG Editor - https://uxwing.com/svg-icon-editor/ -->
  <!-- Created with UXWing SVG Editor - https://uxwing.com/svg-icon-editor/ -->
  <!-- Created with UXWing SVG Editor - https://uxwing.com/svg-icon-editor/ -->
  <!-- Created with UXWing SVG Editor - https://uxwing.com/svg-icon-editor/ -->
  <!-- Created with UXWing SVG Editor - https://uxwing.com/svg-icon-editor/ -->
  <!-- Created with UXWing SVG Editor - https://uxwing.com/svg-icon-editor/ -->
  <!-- Created with UXWing SVG Editor - https://uxwing.com/svg-icon-editor/ -->
  <!-- Created with UXWing SVG Editor - https://uxwing.com/svg-icon-editor/ -->
  <!-- Created with UXWing SVG Editor - https://uxwing.com/svg-icon-editor/ -->
  <!-- Created with UXWing SVG Editor - https://uxwing.com/svg-icon-editor/ -->
  <!-- Created with UXWing SVG Editor - https://uxwing.com/svg-icon-editor/ -->
  <g stroke="null" id="svg_316">
   <g stroke="null" transform="matrix(1.5631561685889857,0,0,1.5631561685889857,-5719.26437134927,-5713.346687211014) " id="svg_313">
    <title fill="none" stroke="#ff7f00" transform="translate(3494.5,0) translate(0,3584.5) ">background</title>
    <rect stroke="#ff7f00" x="3493.5" y="3583.5" width="582" height="402" id="svg_311" fill="none"/>
    <g stroke="null" id="svg_310" display="none">
     <rect stroke="#ff7f00" id="svg_314" width="400" height="400" x="3494.5" y="3584.5" stroke-width="0" fill="none"/>
    </g>
   </g>
   <g stroke="null" transform="matrix(1.5631561685889857,0,0,1.5631561685889857,-5719.26437134927,-5713.346687211014) " id="svg_315">
    <title stroke-width="3" fill="none" stroke="#ff7f00" transform="translate(3494.5,0) translate(0,3584.5) ">Layer 1</title>
    <style stroke-width="3" fill="none" stroke="#ff7f00" transform="translate(3494.5,0) translate(0,3584.5) " type="text/css">.st0{fill-rule:evenodd;clip-rule:evenodd;}</style>
    <style stroke-width="3" fill="none" stroke="#ff7f00" transform="translate(3494.5,0) translate(0,3584.5) " type="text/css">.st0{fill-rule:evenodd;clip-rule:evenodd;}</style>
    <style stroke-width="3" fill="none" stroke="#ff7f00" transform="translate(3494.5,0) translate(0,3584.5) " type="text/css">.st0{fill-rule:evenodd;clip-rule:evenodd;}</style>
    <style stroke-width="3" fill="none" stroke="#ff7f00" transform="translate(3494.5,0) translate(0,3584.5) " type="text/css">.st0{fill-rule:evenodd;clip-rule:evenodd;}</style>
    <style stroke-width="3" fill="none" stroke="#ff7f00" transform="translate(3494.5,0) translate(0,3584.5) " type="text/css">.st0{fill-rule:evenodd;clip-rule:evenodd;}</style>
    <style stroke-width="3" fill="none" stroke="#ff7f00" transform="translate(3494.5,0) translate(0,3584.5) " type="text/css">.st0{fill-rule:evenodd;clip-rule:evenodd;}</style>
    <style stroke-width="3" fill="none" stroke="#ff7f00" transform="translate(3494.5,0) translate(0,3584.5) " type="text/css">.st0{fill-rule:evenodd;clip-rule:evenodd;}</style>
    <style stroke-width="3" fill="none" stroke="#ff7f00" transform="translate(3494.5,0) translate(0,3584.5) " type="text/css">.st0{fill-rule:evenodd;clip-rule:evenodd;}</style>
    <style stroke-width="3" fill="none" stroke="#ff7f00" transform="translate(3494.5,0) translate(0,3584.5) " type="text/css">.st0{fill-rule:evenodd;clip-rule:evenodd;}</style>
    <style stroke-width="3" fill="none" stroke="#ff7f00" transform="translate(3494.5,0) translate(0,3584.5) " type="text/css">.st0{fill-rule:evenodd;clip-rule:evenodd;}</style>
    <style stroke-width="3" fill="none" stroke="#ff7f00" transform="translate(3494.5,0) translate(0,3584.5) " type="text/css">.st0{fill-rule:evenodd;clip-rule:evenodd;}</style>
    <!-- Created with UXWing SVG Editor - https://uxwing.com/svg-icon-editor/ -->
    <!-- Created with UXWing SVG Editor - https://uxwing.com/svg-icon-editor/ -->
    <!-- Created with UXWing SVG Editor - https://uxwing.com/svg-icon-editor/ -->
    <!-- Created with UXWing SVG Editor - https://uxwing.com/svg-icon-editor/ -->
    <!-- Created with UXWing SVG Editor - https://uxwing.com/svg-icon-editor/ -->
    <!-- Created with UXWing SVG Editor - https://uxwing.com/svg-icon-editor/ -->
    <!-- Created with UXWing SVG Editor - https://uxwing.com/svg-icon-editor/ -->
    <!-- Created with UXWing SVG Editor - https://uxwing.com/svg-icon-editor/ -->
    <!-- Created with UXWing SVG Editor - https://uxwing.com/svg-icon-editor/ -->
    <!-- Created with UXWing SVG Editor - https://uxwing.com/svg-icon-editor/ -->
    <g stroke="null" id="svg_307">
     <g stroke="null" id="svg_308" transform="matrix(1.9574546404744666,0,0,1.9574546404744666,0,0) ">
      <path stroke-width="3" stroke="#ff7f00" class="st0" d="m1886.639126,1944.973094l93.37,0c1.47,-1.96 1.25,-3.97 0,-6l-34.64,-44.14l-22.61,0l-36.12,44.13c-1.01,2.05 -1.41,4.07 0,6.01l0,0zm44.47,24.26c0,-1.25 1.02,-2.27 2.27,-2.27c1.25,0 2.27,1.02 2.27,2.27l0,23.32c0,1.25 -1.02,2.27 -2.27,2.27c-1.25,0 -2.27,-1.02 -2.27,-2.27l0,-23.32l0,0zm20.28,-3.47c-0.91,-0.85 -0.97,-2.27 -0.12,-3.19c0.85,-0.91 2.27,-0.97 3.19,-0.12l17.98,16.63c0.91,0.85 0.97,2.27 0.12,3.19c-0.85,0.91 -2.28,0.97 -3.19,0.12l-17.98,-16.63l0,0zm-38.51,-3.36c0.94,-0.82 2.37,-0.73 3.19,0.21c0.82,0.94 0.73,2.37 -0.21,3.19l-17.98,15.73c-0.94,0.82 -2.37,0.73 -3.19,-0.21c-0.82,-0.94 -0.73,-2.37 0.21,-3.19l17.98,-15.73l0,0zm17.94,-90.47l5.13,0l0,8.9c4.88,1.17 8.53,5.58 8.53,10.8l0,0.72l-22.2,0l0,-0.72c0,-5.22 3.66,-9.63 8.54,-10.8l0,-8.9l0,0zm2.73,88.58l0,0c5.99,0 10.9,-4.9 10.9,-10.9l0,-0.7l-21.8,0l0,0.7c0,6 4.9,10.9 10.9,10.9l0,0z" id="svg_309" fill="none"/>
     </g>
    </g>
   </g>
  </g>
 </g>
</svg>