<svg width="400" height="400" xmlns="http://www.w3.org/2000/svg" stroke="null" style="vector-effect: non-scaling-stroke;">
 <!-- Created with UXWing SVG Editor - https://uxwing.com/svg-icon-editor/ -->

 <g stroke="null">
  <title stroke="null">background</title>
  <rect stroke="null" fill="none" id="canvas_background" height="402" width="402" y="-1" x="-1"/>
  <g stroke="null" style="vector-effect: non-scaling-stroke;" display="none" overflow="visible" y="0" x="0" height="100%" width="100%" id="canvasGrid">
   <rect fill="url(#gridpattern)" stroke-width="0" y="0" x="0" height="100%" width="100%"/>
  </g>
 </g>
 <g stroke="null">
  <title stroke="null">Layer 1</title>
  <!-- Created with UXWing SVG Editor - https://uxwing.com/svg-icon-editor/ -->
  <!-- Created with UXWing SVG Editor - https://uxwing.com/svg-icon-editor/ -->
  <!-- Created with UXWing SVG Editor - https://uxwing.com/svg-icon-editor/ -->
  <!-- Created with UXWing SVG Editor - https://uxwing.com/svg-icon-editor/ -->
  <!-- Created with UXWing SVG Editor - https://uxwing.com/svg-icon-editor/ -->
  <!-- Created with UXWing SVG Editor - https://uxwing.com/svg-icon-editor/ -->
  <!-- Created with UXWing SVG Editor - https://uxwing.com/svg-icon-editor/ -->
  <!-- Created with UXWing SVG Editor - https://uxwing.com/svg-icon-editor/ -->
  <!-- Created with UXWing SVG Editor - https://uxwing.com/svg-icon-editor/ -->
  <!-- Created with UXWing SVG Editor - https://uxwing.com/svg-icon-editor/ -->
  <!-- Created with UXWing SVG Editor - https://uxwing.com/svg-icon-editor/ -->
  <!-- Created with UXWing SVG Editor - https://uxwing.com/svg-icon-editor/ -->
  <!-- Created with UXWing SVG Editor - https://uxwing.com/svg-icon-editor/ -->
  <!-- Created with UXWing SVG Editor - https://uxwing.com/svg-icon-editor/ -->
  <!-- Created with UXWing SVG Editor - https://uxwing.com/svg-icon-editor/ -->
  <!-- Created with UXWing SVG Editor - https://uxwing.com/svg-icon-editor/ -->
  <!-- Created with UXWing SVG Editor - https://uxwing.com/svg-icon-editor/ -->
  <!-- Created with UXWing SVG Editor - https://uxwing.com/svg-icon-editor/ -->
  <!-- Created with UXWing SVG Editor - https://uxwing.com/svg-icon-editor/ -->
  <g stroke="null" id="svg_350">
   <g stroke="null" transform="matrix(1.1542214938693243,0,0,1.1542214938693243,-4185.308183867022,-4156.370822040617) " id="svg_347">
    <title stroke="null" transform="translate(-17.327695846557617,0) translate(48.22043228149414,-31.253982543945312) translate(3494.5,0) translate(0,3584.5) ">background</title>
    <rect stroke="null" x="3524.392736" y="3552.246017" width="582" height="402" id="svg_345" fill="none"/>
    <g stroke="null" id="svg_344" display="none">
     <rect stroke="null" id="svg_348" width="400" height="400" x="3525.392736" y="3553.246017" stroke-width="0" fill="url(#gridpattern)"/>
    </g>
   </g>
   <g stroke="null" transform="matrix(1.1542214938693243,0,0,1.1542214938693243,-4185.308183867022,-4156.370822040617) " id="svg_349">
    <title stroke="null" transform="translate(-17.327695846557617,0) translate(48.22043228149414,-31.253982543945312) translate(3494.5,0) translate(0,3584.5) ">Layer 1</title>
    <style stroke="null" transform="translate(-17.327695846557617,0) translate(48.22043228149414,-31.253982543945312) translate(3494.5,0) translate(0,3584.5) " type="text/css">.st0{fill-rule:evenodd;clip-rule:evenodd;}</style>
    <style stroke="null" transform="translate(-17.327695846557617,0) translate(48.22043228149414,-31.253982543945312) translate(3494.5,0) translate(0,3584.5) " type="text/css">.st0{fill-rule:evenodd;clip-rule:evenodd;}</style>
    <style stroke="null" transform="translate(-17.327695846557617,0) translate(48.22043228149414,-31.253982543945312) translate(3494.5,0) translate(0,3584.5) " type="text/css">.st0{fill-rule:evenodd;clip-rule:evenodd;}</style>
    <style stroke="null" transform="translate(-17.327695846557617,0) translate(48.22043228149414,-31.253982543945312) translate(3494.5,0) translate(0,3584.5) " type="text/css">.st0{fill-rule:evenodd;clip-rule:evenodd;}</style>
    <style stroke="null" transform="translate(-17.327695846557617,0) translate(48.22043228149414,-31.253982543945312) translate(3494.5,0) translate(0,3584.5) " type="text/css">.st0{fill-rule:evenodd;clip-rule:evenodd;}</style>
    <style stroke="null" transform="translate(-17.327695846557617,0) translate(48.22043228149414,-31.253982543945312) translate(3494.5,0) translate(0,3584.5) " type="text/css">.st0{fill-rule:evenodd;clip-rule:evenodd;}</style>
    <style stroke="null" transform="translate(-17.327695846557617,0) translate(48.22043228149414,-31.253982543945312) translate(3494.5,0) translate(0,3584.5) " type="text/css">.st0{fill-rule:evenodd;clip-rule:evenodd;}</style>
    <style stroke="null" transform="translate(-17.327695846557617,0) translate(48.22043228149414,-31.253982543945312) translate(3494.5,0) translate(0,3584.5) " type="text/css">.st0{fill-rule:evenodd;clip-rule:evenodd;}</style>
    <style stroke="null" transform="translate(-17.327695846557617,0) translate(48.22043228149414,-31.253982543945312) translate(3494.5,0) translate(0,3584.5) " type="text/css">.st0{fill-rule:evenodd;clip-rule:evenodd;}</style>
    <style stroke="null" transform="translate(-17.327695846557617,0) translate(48.22043228149414,-31.253982543945312) translate(3494.5,0) translate(0,3584.5) " type="text/css">.st0{fill-rule:evenodd;clip-rule:evenodd;}</style>
    <!-- Created with UXWing SVG Editor - https://uxwing.com/svg-icon-editor/ -->
    <!-- Created with UXWing SVG Editor - https://uxwing.com/svg-icon-editor/ -->
    <!-- Created with UXWing SVG Editor - https://uxwing.com/svg-icon-editor/ -->
    <!-- Created with UXWing SVG Editor - https://uxwing.com/svg-icon-editor/ -->
    <!-- Created with UXWing SVG Editor - https://uxwing.com/svg-icon-editor/ -->
    <!-- Created with UXWing SVG Editor - https://uxwing.com/svg-icon-editor/ -->
    <!-- Created with UXWing SVG Editor - https://uxwing.com/svg-icon-editor/ -->
    <!-- Created with UXWing SVG Editor - https://uxwing.com/svg-icon-editor/ -->
    <!-- Created with UXWing SVG Editor - https://uxwing.com/svg-icon-editor/ -->
    <!-- Created with UXWing SVG Editor - https://uxwing.com/svg-icon-editor/ -->
    <g stroke="null" id="svg_341">
     <g stroke="null" id="svg_342" transform="matrix(2.6218161362371215,0,0,2.6218161362371215,56.10961165624121,164.06537668722194) ">
      <path stroke="null" class="st0" d="m1412.160766,1363.7681l19.88,0l0,-32.6c0,-2.73 -1.12,-5.22 -2.92,-7.02c-1.8,-1.8 -4.29,-2.92 -7.02,-2.92s-5.22,1.12 -7.02,2.92c-1.8,1.8 -2.92,4.29 -2.92,7.02l0,32.6l0,0zm32.15,-33.7c-1.41,0 -2.55,-1.14 -2.55,-2.55c0,-1.41 1.14,-2.55 2.55,-2.55l14.14,0c1.41,0 2.55,1.14 2.55,2.55c0,1.41 -1.14,2.55 -2.55,2.55l-14.14,0l0,0zm0,14.37c-1.41,0 -2.55,-1.14 -2.55,-2.55s1.14,-2.55 2.55,-2.55l14.14,0c1.41,0 2.55,1.14 2.55,2.55s-1.14,2.55 -2.55,2.55l-14.14,0l0,0zm0,14.37c-1.41,0 -2.55,-1.14 -2.55,-2.55c0,-1.41 1.14,-2.55 2.55,-2.55l14.14,0c1.41,0 2.55,1.14 2.55,2.55c0,1.41 -1.14,2.55 -2.55,2.55l-14.14,0l0,0zm0,14.37c-1.41,0 -2.55,-1.14 -2.55,-2.55c0,-1.41 1.14,-2.55 2.55,-2.55l14.14,0c1.41,0 2.55,1.14 2.55,2.55c0,1.41 -1.14,2.55 -2.55,2.55l-14.14,0l0,0zm0,14.37c-1.41,0 -2.55,-1.14 -2.55,-2.55c0,-1.41 1.14,-2.55 2.55,-2.55l14.14,0c1.41,0 2.55,1.14 2.55,2.55c0,1.41 -1.14,2.55 -2.55,2.55l-14.14,0l0,0zm-7.18,3.04c6.87,4.81 11.36,12.79 11.36,21.81c0,14.7 -11.92,26.62 -26.62,26.62c-14.7,0 -26.62,-11.92 -26.62,-26.62c0,-9.22 4.69,-17.35 11.82,-22.12l0,-59.11c0,-4.14 1.69,-7.89 4.41,-10.62c2.72,-2.72 6.48,-4.41 10.62,-4.41c4.14,0 7.89,1.69 10.62,4.41c2.72,2.72 4.41,6.48 4.41,10.62l0,59.42l0,0z" id="svg_343" fill="#ffffff"/>
     </g>
    </g>
   </g>
  </g>
 </g>
</svg>