<svg width="400" height="400" xmlns="http://www.w3.org/2000/svg" stroke="null" style="vector-effect: non-scaling-stroke;">
 <!-- Created with UXWing SVG Editor - https://uxwing.com/svg-icon-editor/ -->

 <g stroke="null">
  <title stroke="null">background</title>
  <rect stroke="null" fill="none" id="canvas_background" height="402" width="402" y="-1" x="-1"/>
  <g stroke="null" style="vector-effect: non-scaling-stroke;" display="none" overflow="visible" y="0" x="0" height="100%" width="100%" id="canvasGrid">
   <rect fill="url(#gridpattern)" stroke-width="0" y="0" x="0" height="100%" width="100%"/>
  </g>
 </g>
 <g stroke="null">
  <title stroke="null">Layer 1</title>
  <!-- Created with UXWing SVG Editor - https://uxwing.com/svg-icon-editor/ -->
  <!-- Created with UXWing SVG Editor - https://uxwing.com/svg-icon-editor/ -->
  <!-- Created with UXWing SVG Editor - https://uxwing.com/svg-icon-editor/ -->
  <!-- Created with UXWing SVG Editor - https://uxwing.com/svg-icon-editor/ -->
  <!-- Created with UXWing SVG Editor - https://uxwing.com/svg-icon-editor/ -->
  <!-- Created with UXWing SVG Editor - https://uxwing.com/svg-icon-editor/ -->
  <!-- Created with UXWing SVG Editor - https://uxwing.com/svg-icon-editor/ -->
  <!-- Created with UXWing SVG Editor - https://uxwing.com/svg-icon-editor/ -->
  <!-- Created with UXWing SVG Editor - https://uxwing.com/svg-icon-editor/ -->
  <!-- Created with UXWing SVG Editor - https://uxwing.com/svg-icon-editor/ -->
  <!-- Created with UXWing SVG Editor - https://uxwing.com/svg-icon-editor/ -->
  <!-- Created with UXWing SVG Editor - https://uxwing.com/svg-icon-editor/ -->
  <!-- Created with UXWing SVG Editor - https://uxwing.com/svg-icon-editor/ -->
  <!-- Created with UXWing SVG Editor - https://uxwing.com/svg-icon-editor/ -->
  <!-- Created with UXWing SVG Editor - https://uxwing.com/svg-icon-editor/ -->
  <!-- Created with UXWing SVG Editor - https://uxwing.com/svg-icon-editor/ -->
  <!-- Created with UXWing SVG Editor - https://uxwing.com/svg-icon-editor/ -->
  <!-- Created with UXWing SVG Editor - https://uxwing.com/svg-icon-editor/ -->
  <!-- Created with UXWing SVG Editor - https://uxwing.com/svg-icon-editor/ -->
  <!-- Created with UXWing SVG Editor - https://uxwing.com/svg-icon-editor/ -->
  <g stroke="null" id="svg_367">
   <g stroke="null" transform="matrix(2.4686543386782356,0,0,2.4686543386782356,-9141.622368086668,-9143.313105319476) " id="svg_364">
    <title stroke="#ff7f00" transform="translate(3494.5,0) translate(0,3584.5) ">background</title>
    <rect stroke="#ff7f00" x="3493.5" y="3583.5" width="582" height="402" id="svg_362" fill="none"/>
    <g stroke="null" id="svg_361" display="none">
     <rect stroke="#ff7f00" id="svg_365" width="400" height="400" x="3494.5" y="3584.5" stroke-width="0" fill="url(#gridpattern)"/>
    </g>
   </g>
   <g stroke="null" transform="matrix(2.4686543386782356,0,0,2.4686543386782356,-9141.622368086668,-9143.313105319476) " id="svg_366">
    <title fill="#ff7f00" transform="translate(3494.5,0) translate(0,3584.5) ">Layer 1</title>
    <style fill="#ff7f00" transform="translate(3494.5,0) translate(0,3584.5) " type="text/css">.st0{fill-rule:evenodd;clip-rule:evenodd;}</style>
    <style fill="#ff7f00" transform="translate(3494.5,0) translate(0,3584.5) " type="text/css">.st0{fill-rule:evenodd;clip-rule:evenodd;}</style>
    <style fill="#ff7f00" transform="translate(3494.5,0) translate(0,3584.5) " type="text/css">.st0{fill-rule:evenodd;clip-rule:evenodd;}</style>
    <style fill="#ff7f00" transform="translate(3494.5,0) translate(0,3584.5) " type="text/css">.st0{fill-rule:evenodd;clip-rule:evenodd;}</style>
    <style fill="#ff7f00" transform="translate(3494.5,0) translate(0,3584.5) " type="text/css">.st0{fill-rule:evenodd;clip-rule:evenodd;}</style>
    <style fill="#ff7f00" transform="translate(3494.5,0) translate(0,3584.5) " type="text/css">.st0{fill-rule:evenodd;clip-rule:evenodd;}</style>
    <style fill="#ff7f00" transform="translate(3494.5,0) translate(0,3584.5) " type="text/css">.st0{fill-rule:evenodd;clip-rule:evenodd;}</style>
    <style fill="#ff7f00" transform="translate(3494.5,0) translate(0,3584.5) " type="text/css">.st0{fill-rule:evenodd;clip-rule:evenodd;}</style>
    <style fill="#ff7f00" transform="translate(3494.5,0) translate(0,3584.5) " type="text/css">.st0{fill-rule:evenodd;clip-rule:evenodd;}</style>
    <style fill="#ff7f00" transform="translate(3494.5,0) translate(0,3584.5) " type="text/css">.st0{fill-rule:evenodd;clip-rule:evenodd;}</style>
    <style fill="#ff7f00" transform="translate(3494.5,0) translate(0,3584.5) " type="text/css">.st0{fill-rule:evenodd;clip-rule:evenodd;}</style>
    <!-- Created with UXWing SVG Editor - https://uxwing.com/svg-icon-editor/ -->
    <!-- Created with UXWing SVG Editor - https://uxwing.com/svg-icon-editor/ -->
    <!-- Created with UXWing SVG Editor - https://uxwing.com/svg-icon-editor/ -->
    <!-- Created with UXWing SVG Editor - https://uxwing.com/svg-icon-editor/ -->
    <!-- Created with UXWing SVG Editor - https://uxwing.com/svg-icon-editor/ -->
    <!-- Created with UXWing SVG Editor - https://uxwing.com/svg-icon-editor/ -->
    <!-- Created with UXWing SVG Editor - https://uxwing.com/svg-icon-editor/ -->
    <!-- Created with UXWing SVG Editor - https://uxwing.com/svg-icon-editor/ -->
    <!-- Created with UXWing SVG Editor - https://uxwing.com/svg-icon-editor/ -->
    <!-- Created with UXWing SVG Editor - https://uxwing.com/svg-icon-editor/ -->
    <g stroke="null" id="svg_358">
     <g stroke="null" id="svg_359" transform="matrix(1.1773756417779282,0,0,1.1773756417779282,0,0) ">
      <path d="m3154.992262,3170.952225l118.72,0l2.08,0l0,2.08l0,69.2l0,2.08l-2.08,0l-43.23,0l0,8.29l7.28,0l0,5.15l-46.97,0l0,-5.15l7.28,0l0,-8.29l-43.08,0l-2.08,0l0,-2.08l0,-69.2l0,-2.08l2.08,0l0,0l0,0l0,0zm116.65,4.15l-114.58,0l0,65.05l114.57,0l0.01,-65.05l0,0l0,0l0,0z" id="svg_360" fill="#ff7f00"/>
     </g>
    </g>
   </g>
  </g>
 </g>
</svg>