<svg width="400" height="400" xmlns="http://www.w3.org/2000/svg" stroke="null" style="vector-effect: non-scaling-stroke;">
 <!-- Created with UXWing SVG Editor - https://uxwing.com/svg-icon-editor/ -->

 <g stroke="null">
  <title stroke="null">background</title>
  <rect stroke="null" fill="none" id="canvas_background" height="402" width="402" y="-1" x="-1"/>
  <g stroke="null" style="vector-effect: non-scaling-stroke;" display="none" overflow="visible" y="0" x="0" height="100%" width="100%" id="canvasGrid">
   <rect fill="url(#gridpattern)" stroke-width="0" y="0" x="0" height="100%" width="100%"/>
  </g>
 </g>
 <g stroke="null">
  <title stroke="null">Layer 1</title>
  <!-- Created with UXWing SVG Editor - https://uxwing.com/svg-icon-editor/ -->
  <!-- Created with UXWing SVG Editor - https://uxwing.com/svg-icon-editor/ -->
  <!-- Created with UXWing SVG Editor - https://uxwing.com/svg-icon-editor/ -->
  <!-- Created with UXWing SVG Editor - https://uxwing.com/svg-icon-editor/ -->
  <!-- Created with UXWing SVG Editor - https://uxwing.com/svg-icon-editor/ -->
  <!-- Created with UXWing SVG Editor - https://uxwing.com/svg-icon-editor/ -->
  <!-- Created with UXWing SVG Editor - https://uxwing.com/svg-icon-editor/ -->
  <!-- Created with UXWing SVG Editor - https://uxwing.com/svg-icon-editor/ -->
  <g stroke="null" id="svg_163">
   <g stroke="null" transform="matrix(2.527073793945913,0,0,2.527073793945913,-9285.48393920245,-9417.480787125769) " id="svg_160">
    <title stroke="#ff7f00" transform="translate(0,0.3957146108150482) translate(12.662867546081543,-6.3314337730407715) translate(-44.805538177490234,33.41429901123047) translate(3494.5,0) translate(0,3584.5) ">background</title>
    <rect stroke="#ff7f00" x="3461.357329" y="3610.97858" width="582" height="402" id="svg_158" fill="none"/>
    <g stroke="null" id="svg_157" display="none">
     <rect stroke="#ff7f00" id="svg_161" width="400" height="400" x="3462.357329" y="3611.97858" stroke-width="0" fill="url(#gridpattern)"/>
    </g>
   </g>
   <g stroke="null" transform="matrix(2.527073793945913,0,0,2.527073793945913,-9285.48393920245,-9417.480787125769) " id="svg_162">
    <title fill="#ff7f00" transform="translate(0,0.3957146108150482) translate(12.662867546081543,-6.3314337730407715) translate(-44.805538177490234,33.41429901123047) translate(3494.5,0) translate(0,3584.5) ">Layer 1</title>
    <style fill="#ff7f00" transform="translate(0,0.3957146108150482) translate(12.662867546081543,-6.3314337730407715) translate(-44.805538177490234,33.41429901123047) translate(3494.5,0) translate(0,3584.5) " type="text/css">.st0{fill-rule:evenodd;clip-rule:evenodd;}</style>
    <style fill="#ff7f00" transform="translate(0,0.3957146108150482) translate(12.662867546081543,-6.3314337730407715) translate(-44.805538177490234,33.41429901123047) translate(3494.5,0) translate(0,3584.5) " type="text/css">.st0{fill-rule:evenodd;clip-rule:evenodd;}</style>
    <style fill="#ff7f00" transform="translate(0,0.3957146108150482) translate(12.662867546081543,-6.3314337730407715) translate(-44.805538177490234,33.41429901123047) translate(3494.5,0) translate(0,3584.5) " type="text/css">.st0{fill-rule:evenodd;clip-rule:evenodd;}</style>
    <style fill="#ff7f00" transform="translate(0,0.3957146108150482) translate(12.662867546081543,-6.3314337730407715) translate(-44.805538177490234,33.41429901123047) translate(3494.5,0) translate(0,3584.5) " type="text/css">.st0{fill-rule:evenodd;clip-rule:evenodd;}</style>
    <style fill="#ff7f00" transform="translate(0,0.3957146108150482) translate(12.662867546081543,-6.3314337730407715) translate(-44.805538177490234,33.41429901123047) translate(3494.5,0) translate(0,3584.5) " type="text/css">.st0{fill-rule:evenodd;clip-rule:evenodd;}</style>
    <style fill="#ff7f00" transform="translate(0,0.3957146108150482) translate(12.662867546081543,-6.3314337730407715) translate(-44.805538177490234,33.41429901123047) translate(3494.5,0) translate(0,3584.5) " type="text/css">.st0{fill-rule:evenodd;clip-rule:evenodd;}</style>
    <style fill="#ff7f00" transform="translate(0,0.3957146108150482) translate(12.662867546081543,-6.3314337730407715) translate(-44.805538177490234,33.41429901123047) translate(3494.5,0) translate(0,3584.5) " type="text/css">.st0{fill-rule:evenodd;clip-rule:evenodd;}</style>
    <style fill="#ff7f00" transform="translate(0,0.3957146108150482) translate(12.662867546081543,-6.3314337730407715) translate(-44.805538177490234,33.41429901123047) translate(3494.5,0) translate(0,3584.5) " type="text/css">.st0{fill-rule:evenodd;clip-rule:evenodd;}</style>
    <style fill="#ff7f00" transform="translate(0,0.3957146108150482) translate(12.662867546081543,-6.3314337730407715) translate(-44.805538177490234,33.41429901123047) translate(3494.5,0) translate(0,3584.5) " type="text/css">.st0{fill-rule:evenodd;clip-rule:evenodd;}</style>
    <style fill="#ff7f00" transform="translate(0,0.3957146108150482) translate(12.662867546081543,-6.3314337730407715) translate(-44.805538177490234,33.41429901123047) translate(3494.5,0) translate(0,3584.5) " type="text/css">.st0{fill-rule:evenodd;clip-rule:evenodd;}</style>
    <style fill="#ff7f00" transform="translate(0,0.3957146108150482) translate(12.662867546081543,-6.3314337730407715) translate(-44.805538177490234,33.41429901123047) translate(3494.5,0) translate(0,3584.5) " type="text/css">.st0{fill-rule:evenodd;clip-rule:evenodd;}</style>
    <style fill="#ff7f00" transform="translate(0,0.3957146108150482) translate(12.662867546081543,-6.3314337730407715) translate(-44.805538177490234,33.41429901123047) translate(3494.5,0) translate(0,3584.5) " type="text/css">.st0{fill-rule:evenodd;clip-rule:evenodd;}</style>
    <!-- Created with UXWing SVG Editor - https://uxwing.com/svg-icon-editor/ -->
    <!-- Created with UXWing SVG Editor - https://uxwing.com/svg-icon-editor/ -->
    <!-- Created with UXWing SVG Editor - https://uxwing.com/svg-icon-editor/ -->
    <!-- Created with UXWing SVG Editor - https://uxwing.com/svg-icon-editor/ -->
    <!-- Created with UXWing SVG Editor - https://uxwing.com/svg-icon-editor/ -->
    <!-- Created with UXWing SVG Editor - https://uxwing.com/svg-icon-editor/ -->
    <!-- Created with UXWing SVG Editor - https://uxwing.com/svg-icon-editor/ -->
    <!-- Created with UXWing SVG Editor - https://uxwing.com/svg-icon-editor/ -->
    <!-- Created with UXWing SVG Editor - https://uxwing.com/svg-icon-editor/ -->
    <!-- Created with UXWing SVG Editor - https://uxwing.com/svg-icon-editor/ -->
    <g stroke="null" id="svg_154">
     <g stroke="null" id="svg_155" transform="matrix(1.1773756417779282,0,0,1.1773756417779282,0,0) ">
      <path d="m3206.39134,3255.358543c-0.53,-0.51 -0.32,-1.2 0.48,-1.54c0.8,-0.34 1.87,-0.2 2.41,0.3c3.78,3.6 1.96,6.52 0.21,9.32c-1.32,2.12 -2.59,4.15 -0.25,6.19c0.57,0.5 0.4,1.19 -0.37,1.55c-0.77,0.36 -1.86,0.26 -2.43,-0.24c-3.47,-3.03 -1.86,-5.62 -0.17,-8.32c1.41,-2.27 2.89,-4.63 0.12,-7.26l0,0zm-65.36,-23.26l73.65,0c0.96,0 1.74,0.78 1.74,1.74l0,12.26l24.13,0c1.46,0 2.79,-0.6 3.75,-1.56c0.96,-0.96 1.56,-2.29 1.56,-3.75l0,-28c0,-1.46 -0.6,-2.79 -1.56,-3.75c-0.96,-0.96 -2.29,-1.56 -3.75,-1.56l-105.29,0c-1.46,0 -2.79,0.6 -3.75,1.56c-0.97,0.96 -1.57,2.29 -1.57,3.75l0,28c0,1.46 0.6,2.79 1.56,3.75c0.96,0.96 2.29,1.56 3.75,1.56l4.03,0l0,-12.26c0.01,-0.96 0.79,-1.74 1.75,-1.74l0,0zm71.91,3.48l-70.17,0l0,10.09l70.17,0l0,-10.09l0,0zm-71.27,-17.95c-0.96,0 -1.74,-0.78 -1.74,-1.74c0,-0.96 0.78,-1.74 1.74,-1.74l93.74,0c0.96,0 1.74,0.78 1.74,1.74c0,0.96 -0.78,1.74 -1.74,1.74l-93.74,0l0,0zm83.37,18.35c1.36,0 2.46,1.1 2.46,2.46s-1.1,2.46 -2.46,2.46s-2.46,-1.1 -2.46,-2.46s1.11,-2.46 2.46,-2.46l0,0zm10.27,0c1.36,0 2.46,1.1 2.46,2.46s-1.1,2.46 -2.46,2.46c-1.36,0 -2.46,-1.1 -2.46,-2.46s1.1,-2.46 2.46,-2.46l0,0zm-100.05,-31.99l105.29,0c2.42,0 4.62,0.99 6.21,2.58c1.59,1.59 2.58,3.79 2.58,6.21l0,28.01c0,2.42 -0.99,4.62 -2.58,6.21c-1.59,1.59 -3.79,2.58 -6.21,2.58l-105.29,0c-2.42,0 -4.62,-0.99 -6.21,-2.58c-1.6,-1.59 -2.59,-3.79 -2.59,-6.21l0,-28c0,-2.42 0.99,-4.62 2.58,-6.21c1.6,-1.6 3.8,-2.59 6.22,-2.59l0,0zm6.41,21.76c-0.96,0 -1.74,-0.78 -1.74,-1.74c0,-0.96 0.78,-1.74 1.74,-1.74l93.74,0c0.96,0 1.74,0.78 1.74,1.74c0,0.96 -0.78,1.74 -1.74,1.74l-93.74,0l0,0zm6.16,29.61c-0.53,-0.51 -0.32,-1.2 0.48,-1.54c0.8,-0.34 1.87,-0.2 2.41,0.3c3.78,3.6 1.96,6.52 0.21,9.32c-1.32,2.12 -2.59,4.15 -0.25,6.19c0.57,0.5 0.4,1.19 -0.37,1.55c-0.77,0.36 -1.86,0.26 -2.43,-0.24c-3.47,-3.03 -1.86,-5.62 -0.17,-8.32c1.41,-2.27 2.88,-4.63 0.12,-7.26l0,0zm14.64,0c-0.53,-0.51 -0.32,-1.2 0.48,-1.54c0.8,-0.34 1.87,-0.2 2.41,0.3c3.78,3.6 1.96,6.52 0.21,9.32c-1.32,2.12 -2.59,4.15 -0.25,6.19c0.57,0.5 0.4,1.19 -0.37,1.55c-0.77,0.36 -1.86,0.26 -2.43,-0.24c-3.47,-3.03 -1.86,-5.62 -0.17,-8.32c1.41,-2.27 2.88,-4.63 0.12,-7.26l0,0zm14.64,0c-0.53,-0.51 -0.32,-1.2 0.48,-1.54c0.8,-0.34 1.87,-0.2 2.41,0.3c3.78,3.6 1.96,6.52 0.21,9.32c-1.32,2.12 -2.59,4.15 -0.25,6.19c0.57,0.5 0.4,1.19 -0.37,1.55c-0.77,0.36 -1.86,0.26 -2.43,-0.24c-3.47,-3.03 -1.86,-5.62 -0.17,-8.32c1.41,-2.27 2.89,-4.63 0.12,-7.26l0,0zm14.64,0c-0.53,-0.51 -0.32,-1.2 0.48,-1.54c0.8,-0.34 1.87,-0.2 2.41,0.3c3.78,3.6 1.96,6.52 0.21,9.32c-1.32,2.12 -2.59,4.15 -0.25,6.19c0.57,0.5 0.4,1.19 -0.37,1.55c-0.77,0.36 -1.86,0.26 -2.43,-0.24c-3.47,-3.03 -1.85,-5.62 -0.17,-8.32c1.41,-2.27 2.89,-4.63 0.12,-7.26l0,0z" id="svg_156" fill="#ff7f00"/>
     </g>
    </g>
   </g>
  </g>
 </g>
</svg>