<svg width="400" height="400" xmlns="http://www.w3.org/2000/svg" stroke="null" style="vector-effect: non-scaling-stroke;">
 <!-- Created with UXWing SVG Editor - https://uxwing.com/svg-icon-editor/ -->

 <g stroke="null">
  <title stroke="null">background</title>
  <rect stroke="null" fill="none" id="canvas_background" height="402" width="402" y="-1" x="-1"/>
  <g stroke="null" style="vector-effect: non-scaling-stroke;" display="none" overflow="visible" y="0" x="0" height="100%" width="100%" id="canvasGrid">
   <rect fill="url(#gridpattern)" stroke-width="0" y="0" x="0" height="100%" width="100%"/>
  </g>
 </g>
 <g stroke="null">
  <title stroke="null">Layer 1</title>
  <!-- Created with UXWing SVG Editor - https://uxwing.com/svg-icon-editor/ -->
  <!-- Created with UXWing SVG Editor - https://uxwing.com/svg-icon-editor/ -->
  <!-- Created with UXWing SVG Editor - https://uxwing.com/svg-icon-editor/ -->
  <!-- Created with UXWing SVG Editor - https://uxwing.com/svg-icon-editor/ -->
  <!-- Created with UXWing SVG Editor - https://uxwing.com/svg-icon-editor/ -->
  <!-- Created with UXWing SVG Editor - https://uxwing.com/svg-icon-editor/ -->
  <!-- Created with UXWing SVG Editor - https://uxwing.com/svg-icon-editor/ -->
  <!-- Created with UXWing SVG Editor - https://uxwing.com/svg-icon-editor/ -->
  <!-- Created with UXWing SVG Editor - https://uxwing.com/svg-icon-editor/ -->
  <!-- Created with UXWing SVG Editor - https://uxwing.com/svg-icon-editor/ -->
  <g stroke="null" id="svg_197">
   <g stroke="null" transform="matrix(2.561437823379008,0,0,2.561437823379008,-8125.2145553202645,-10450.82309899815) " id="svg_194">
    <title stroke-width="4" fill="none" stroke="#ff7f00" transform="translate(-0.39040571451187134,0) translate(-26.157184600830078,17.177852630615234) translate(-73.62939453125,44.177635192871094) translate(-140.55752563476562,101.31855010986328) translate(-296.28692626953125,210.48956298828125) translate(3494.5,0) translate(0,3584.5) ">background</title>
    <rect stroke-width="4" stroke="#ff7f00" x="2956.478563" y="3956.663601" width="582" height="402" id="svg_192" fill="none"/>
    <g stroke="null" id="svg_191" display="none">
     <rect stroke="#ff7f00" id="svg_195" width="400" height="400" x="2957.478563" y="3957.663601" stroke-width="4" fill="none"/>
    </g>
   </g>
   <g stroke="null" transform="matrix(2.561437823379008,0,0,2.561437823379008,-8125.2145553202645,-10450.82309899815) " id="svg_196">
    <title stroke-width="4" fill="none" stroke="#ff7f00" transform="translate(-0.39040571451187134,0) translate(-26.157184600830078,17.177852630615234) translate(-73.62939453125,44.177635192871094) translate(-140.55752563476562,101.31855010986328) translate(-296.28692626953125,210.48956298828125) translate(3494.5,0) translate(0,3584.5) ">Layer 1</title>
    <style stroke-width="4" fill="none" stroke="#ff7f00" transform="translate(-0.39040571451187134,0) translate(-26.157184600830078,17.177852630615234) translate(-73.62939453125,44.177635192871094) translate(-140.55752563476562,101.31855010986328) translate(-296.28692626953125,210.48956298828125) translate(3494.5,0) translate(0,3584.5) " type="text/css">.st0{fill-rule:evenodd;clip-rule:evenodd;}</style>
    <style stroke-width="4" fill="none" stroke="#ff7f00" transform="translate(-0.39040571451187134,0) translate(-26.157184600830078,17.177852630615234) translate(-73.62939453125,44.177635192871094) translate(-140.55752563476562,101.31855010986328) translate(-296.28692626953125,210.48956298828125) translate(3494.5,0) translate(0,3584.5) " type="text/css">.st0{fill-rule:evenodd;clip-rule:evenodd;}</style>
    <style stroke-width="4" fill="none" stroke="#ff7f00" transform="translate(-0.39040571451187134,0) translate(-26.157184600830078,17.177852630615234) translate(-73.62939453125,44.177635192871094) translate(-140.55752563476562,101.31855010986328) translate(-296.28692626953125,210.48956298828125) translate(3494.5,0) translate(0,3584.5) " type="text/css">.st0{fill-rule:evenodd;clip-rule:evenodd;}</style>
    <style stroke-width="4" fill="none" stroke="#ff7f00" transform="translate(-0.39040571451187134,0) translate(-26.157184600830078,17.177852630615234) translate(-73.62939453125,44.177635192871094) translate(-140.55752563476562,101.31855010986328) translate(-296.28692626953125,210.48956298828125) translate(3494.5,0) translate(0,3584.5) " type="text/css">.st0{fill-rule:evenodd;clip-rule:evenodd;}</style>
    <style stroke-width="4" fill="none" stroke="#ff7f00" transform="translate(-0.39040571451187134,0) translate(-26.157184600830078,17.177852630615234) translate(-73.62939453125,44.177635192871094) translate(-140.55752563476562,101.31855010986328) translate(-296.28692626953125,210.48956298828125) translate(3494.5,0) translate(0,3584.5) " type="text/css">.st0{fill-rule:evenodd;clip-rule:evenodd;}</style>
    <style stroke-width="4" fill="none" stroke="#ff7f00" transform="translate(-0.39040571451187134,0) translate(-26.157184600830078,17.177852630615234) translate(-73.62939453125,44.177635192871094) translate(-140.55752563476562,101.31855010986328) translate(-296.28692626953125,210.48956298828125) translate(3494.5,0) translate(0,3584.5) " type="text/css">.st0{fill-rule:evenodd;clip-rule:evenodd;}</style>
    <style stroke-width="4" fill="none" stroke="#ff7f00" transform="translate(-0.39040571451187134,0) translate(-26.157184600830078,17.177852630615234) translate(-73.62939453125,44.177635192871094) translate(-140.55752563476562,101.31855010986328) translate(-296.28692626953125,210.48956298828125) translate(3494.5,0) translate(0,3584.5) " type="text/css">.st0{fill-rule:evenodd;clip-rule:evenodd;}</style>
    <style stroke-width="4" fill="none" stroke="#ff7f00" transform="translate(-0.39040571451187134,0) translate(-26.157184600830078,17.177852630615234) translate(-73.62939453125,44.177635192871094) translate(-140.55752563476562,101.31855010986328) translate(-296.28692626953125,210.48956298828125) translate(3494.5,0) translate(0,3584.5) " type="text/css">.st0{fill-rule:evenodd;clip-rule:evenodd;}</style>
    <style stroke-width="4" fill="none" stroke="#ff7f00" transform="translate(-0.39040571451187134,0) translate(-26.157184600830078,17.177852630615234) translate(-73.62939453125,44.177635192871094) translate(-140.55752563476562,101.31855010986328) translate(-296.28692626953125,210.48956298828125) translate(3494.5,0) translate(0,3584.5) " type="text/css">.st0{fill-rule:evenodd;clip-rule:evenodd;}</style>
    <style stroke-width="4" fill="none" stroke="#ff7f00" transform="translate(-0.39040571451187134,0) translate(-26.157184600830078,17.177852630615234) translate(-73.62939453125,44.177635192871094) translate(-140.55752563476562,101.31855010986328) translate(-296.28692626953125,210.48956298828125) translate(3494.5,0) translate(0,3584.5) " type="text/css">.st0{fill-rule:evenodd;clip-rule:evenodd;}</style>
    <style stroke-width="4" fill="none" stroke="#ff7f00" transform="translate(-0.39040571451187134,0) translate(-26.157184600830078,17.177852630615234) translate(-73.62939453125,44.177635192871094) translate(-140.55752563476562,101.31855010986328) translate(-296.28692626953125,210.48956298828125) translate(3494.5,0) translate(0,3584.5) " type="text/css">.st0{fill-rule:evenodd;clip-rule:evenodd;}</style>
    <style stroke-width="4" fill="none" stroke="#ff7f00" transform="translate(-0.39040571451187134,0) translate(-26.157184600830078,17.177852630615234) translate(-73.62939453125,44.177635192871094) translate(-140.55752563476562,101.31855010986328) translate(-296.28692626953125,210.48956298828125) translate(3494.5,0) translate(0,3584.5) " type="text/css">.st0{fill-rule:evenodd;clip-rule:evenodd;}</style>
    <!-- Created with UXWing SVG Editor - https://uxwing.com/svg-icon-editor/ -->
    <!-- Created with UXWing SVG Editor - https://uxwing.com/svg-icon-editor/ -->
    <!-- Created with UXWing SVG Editor - https://uxwing.com/svg-icon-editor/ -->
    <!-- Created with UXWing SVG Editor - https://uxwing.com/svg-icon-editor/ -->
    <!-- Created with UXWing SVG Editor - https://uxwing.com/svg-icon-editor/ -->
    <!-- Created with UXWing SVG Editor - https://uxwing.com/svg-icon-editor/ -->
    <!-- Created with UXWing SVG Editor - https://uxwing.com/svg-icon-editor/ -->
    <!-- Created with UXWing SVG Editor - https://uxwing.com/svg-icon-editor/ -->
    <!-- Created with UXWing SVG Editor - https://uxwing.com/svg-icon-editor/ -->
    <!-- Created with UXWing SVG Editor - https://uxwing.com/svg-icon-editor/ -->
    <g stroke="null" id="svg_188">
     <g stroke="null" id="svg_189" transform="matrix(1.1773756417779282,0,0,1.1773756417779282,0,0) ">
      <path stroke-width="4" stroke="#ff7f00" class="st0" d="m2803.301545,3471.615847l-87.4,24.77l30.23,39.5l69.77,-19.78c2.74,-0.78 4.35,-3.66 3.57,-6.4l-9.77,-34.52c-0.78,-2.74 -3.66,-4.35 -6.4,-3.57l0,0l0,0zm-22.62,63.93l-16.25,3.82l0,51.81l16.25,0l0,-55.63l0,0zm-49.23,-2.76l-18.76,-27.98l-15.89,4.5l18.94,27.93l15.71,-4.45l0,0l0,0zm21.08,-30.83l-8.14,2.31l2.61,9.21l8.14,-2.31l-2.61,-9.21l0,0l0,0z" id="svg_190" fill="none"/>
     </g>
    </g>
   </g>
  </g>
 </g>
</svg>