<svg width="400" height="400" xmlns="http://www.w3.org/2000/svg" stroke="null" style="vector-effect: non-scaling-stroke;">
 <!-- Created with UXWing SVG Editor - https://uxwing.com/svg-icon-editor/ -->

 <g stroke="null">
  <title stroke="null">background</title>
  <rect stroke="null" fill="none" id="canvas_background" height="402" width="402" y="-1" x="-1"/>
  <g stroke="null" style="vector-effect: non-scaling-stroke;" display="none" overflow="visible" y="0" x="0" height="100%" width="100%" id="canvasGrid">
   <rect fill="url(#gridpattern)" stroke-width="0" y="0" x="0" height="100%" width="100%"/>
  </g>
 </g>
 <g stroke="null">
  <title stroke="null">Layer 1</title>
  <!-- Created with UXWing SVG Editor - https://uxwing.com/svg-icon-editor/ -->
  <!-- Created with UXWing SVG Editor - https://uxwing.com/svg-icon-editor/ -->
  <!-- Created with UXWing SVG Editor - https://uxwing.com/svg-icon-editor/ -->
  <!-- Created with UXWing SVG Editor - https://uxwing.com/svg-icon-editor/ -->
  <!-- Created with UXWing SVG Editor - https://uxwing.com/svg-icon-editor/ -->
  <!-- Created with UXWing SVG Editor - https://uxwing.com/svg-icon-editor/ -->
  <!-- Created with UXWing SVG Editor - https://uxwing.com/svg-icon-editor/ -->
  <!-- Created with UXWing SVG Editor - https://uxwing.com/svg-icon-editor/ -->
  <!-- Created with UXWing SVG Editor - https://uxwing.com/svg-icon-editor/ -->
  <!-- Created with UXWing SVG Editor - https://uxwing.com/svg-icon-editor/ -->
  <!-- Created with UXWing SVG Editor - https://uxwing.com/svg-icon-editor/ -->
  <!-- Created with UXWing SVG Editor - https://uxwing.com/svg-icon-editor/ -->
  <!-- Created with UXWing SVG Editor - https://uxwing.com/svg-icon-editor/ -->
  <!-- Created with UXWing SVG Editor - https://uxwing.com/svg-icon-editor/ -->
  <!-- Created with UXWing SVG Editor - https://uxwing.com/svg-icon-editor/ -->
  <!-- Created with UXWing SVG Editor - https://uxwing.com/svg-icon-editor/ -->
  <!-- Created with UXWing SVG Editor - https://uxwing.com/svg-icon-editor/ -->
  <!-- Created with UXWing SVG Editor - https://uxwing.com/svg-icon-editor/ -->
  <!-- Created with UXWing SVG Editor - https://uxwing.com/svg-icon-editor/ -->
  <!-- Created with UXWing SVG Editor - https://uxwing.com/svg-icon-editor/ -->
  <!-- Created with UXWing SVG Editor - https://uxwing.com/svg-icon-editor/ -->
  <g stroke="null" id="svg_384">
   <g stroke="null" transform="matrix(2.542537840342879,0,0,2.542537840342879,-9421.734238771021,-9422.579591470543) " id="svg_381">
    <title fill="none" stroke="#ff7f00" transform="translate(3494.5,0) translate(0,3584.5) ">background</title>
    <rect stroke="#ff7f00" x="3493.5" y="3583.5" width="582" height="402" id="svg_379" fill="none"/>
    <g stroke="null" id="svg_378" display="none">
     <rect stroke="#ff7f00" id="svg_382" width="400" height="400" x="3494.5" y="3584.5" stroke-width="0" fill="none"/>
    </g>
   </g>
   <g stroke="null" transform="matrix(2.542537840342879,0,0,2.542537840342879,-9421.734238771021,-9422.579591470543) " id="svg_383">
    <title fill="#ff7f00" transform="translate(3494.5,0) translate(0,3584.5) ">Layer 1</title>
    <style fill="#ff7f00" transform="translate(3494.5,0) translate(0,3584.5) " type="text/css">.st0{fill-rule:evenodd;clip-rule:evenodd;}</style>
    <style fill="#ff7f00" transform="translate(3494.5,0) translate(0,3584.5) " type="text/css">.st0{fill-rule:evenodd;clip-rule:evenodd;}</style>
    <style fill="#ff7f00" transform="translate(3494.5,0) translate(0,3584.5) " type="text/css">.st0{fill-rule:evenodd;clip-rule:evenodd;}</style>
    <style fill="#ff7f00" transform="translate(3494.5,0) translate(0,3584.5) " type="text/css">.st0{fill-rule:evenodd;clip-rule:evenodd;}</style>
    <style fill="#ff7f00" transform="translate(3494.5,0) translate(0,3584.5) " type="text/css">.st0{fill-rule:evenodd;clip-rule:evenodd;}</style>
    <style fill="#ff7f00" transform="translate(3494.5,0) translate(0,3584.5) " type="text/css">.st0{fill-rule:evenodd;clip-rule:evenodd;}</style>
    <style fill="#ff7f00" transform="translate(3494.5,0) translate(0,3584.5) " type="text/css">.st0{fill-rule:evenodd;clip-rule:evenodd;}</style>
    <style fill="#ff7f00" transform="translate(3494.5,0) translate(0,3584.5) " type="text/css">.st0{fill-rule:evenodd;clip-rule:evenodd;}</style>
    <!-- Created with UXWing SVG Editor - https://uxwing.com/svg-icon-editor/ -->
    <!-- Created with UXWing SVG Editor - https://uxwing.com/svg-icon-editor/ -->
    <!-- Created with UXWing SVG Editor - https://uxwing.com/svg-icon-editor/ -->
    <!-- Created with UXWing SVG Editor - https://uxwing.com/svg-icon-editor/ -->
    <!-- Created with UXWing SVG Editor - https://uxwing.com/svg-icon-editor/ -->
    <!-- Created with UXWing SVG Editor - https://uxwing.com/svg-icon-editor/ -->
    <g stroke="null" id="svg_375">
     <g stroke="null" id="svg_376" transform="matrix(1.1773756417779282,0,0,1.1773756417779282,0,0) ">
      <path d="m3170.908254,3170.907727c11.997,-11.996 27.721,-17.995 43.444,-17.995s31.448,5.999 43.445,17.995c11.996,11.997 17.994,27.721 17.994,43.444c0,15.725 -5.998,31.448 -17.994,43.445c-11.997,11.996 -27.722,17.995 -43.445,17.995s-31.448,-5.999 -43.444,-17.995c-11.997,-11.996 -17.995,-27.72 -17.995,-43.445c0,-15.723 5.998,-31.447 17.995,-43.444l0,0zm39.661,13.187c0,-1.84 1.492,-3.332 3.333,-3.332s3.333,1.492 3.333,3.332l0,27.383l27.383,0c1.84,0 3.332,1.492 3.332,3.332c0,1.841 -1.492,3.333 -3.332,3.333l-27.384,0l0,27.383c0,1.84 -1.492,3.332 -3.333,3.332s-3.333,-1.492 -3.333,-3.332l0,-27.384l-27.382,0c-1.84,0 -3.333,-1.492 -3.333,-3.333c0,-1.84 1.492,-3.332 3.333,-3.332l27.383,0l0,-27.382l0,0zm3.783,-24.517c-14.018,0 -28.035,5.348 -38.731,16.044c-10.695,10.695 -16.043,24.713 -16.043,38.73c0,14.018 5.348,28.036 16.043,38.731c10.696,10.696 24.713,16.044 38.731,16.044s28.035,-5.348 38.731,-16.044c10.695,-10.695 16.044,-24.714 16.044,-38.731c0,-14.017 -5.349,-28.035 -16.044,-38.73c-10.695,-10.696 -24.713,-16.044 -38.731,-16.044l0,0z" id="svg_377" fill="#ff7f00"/>
     </g>
    </g>
   </g>
  </g>
 </g>
</svg>