<svg width="400" height="400" xmlns="http://www.w3.org/2000/svg" stroke="null" style="vector-effect: non-scaling-stroke;">
 <!-- Created with UXWing SVG Editor - https://uxwing.com/svg-icon-editor/ -->

 <g stroke="null">
  <title stroke="null">background</title>
  <rect stroke="null" fill="none" id="canvas_background" height="402" width="402" y="-1" x="-1"/>
  <g stroke="null" style="vector-effect: non-scaling-stroke;" display="none" overflow="visible" y="0" x="0" height="100%" width="100%" id="canvasGrid">
   <rect fill="url(#gridpattern)" stroke-width="0" y="0" x="0" height="100%" width="100%"/>
  </g>
 </g>
 <g stroke="null">
  <title stroke="null">Layer 1</title>
  <!-- Created with UXWing SVG Editor - https://uxwing.com/svg-icon-editor/ -->
  <!-- Created with UXWing SVG Editor - https://uxwing.com/svg-icon-editor/ -->
  <!-- Created with UXWing SVG Editor - https://uxwing.com/svg-icon-editor/ -->
  <!-- Created with UXWing SVG Editor - https://uxwing.com/svg-icon-editor/ -->
  <!-- Created with UXWing SVG Editor - https://uxwing.com/svg-icon-editor/ -->
  <!-- Created with UXWing SVG Editor - https://uxwing.com/svg-icon-editor/ -->
  <g stroke="null" id="svg_131">
   <g stroke="null" transform="matrix(2.6284478554847,0,0,2.6284478554847,-8993.011754968727,-10271.694443787352) " id="svg_128">
    <title stroke="null" transform="translate(-41.088890075683594,27.39259147644043) translate(-247.6173553466797,172.63462829589844) translate(3494.5,0) translate(0,3584.5) ">background</title>
    <rect stroke="null" x="3204.793755" y="3783.52722" width="582" height="402" id="svg_126" fill="none"/>
    <g stroke="null" id="svg_125" display="none">
     <rect stroke="null" id="svg_129" width="400" height="400" x="3205.793755" y="3784.52722" stroke-width="0" fill="url(#gridpattern)"/>
    </g>
   </g>
   <g stroke="null" transform="matrix(2.6284478554847,0,0,2.6284478554847,-8993.011754968727,-10271.694443787352) " id="svg_130">
    <title stroke="null" transform="translate(-41.088890075683594,27.39259147644043) translate(-247.6173553466797,172.63462829589844) translate(3494.5,0) translate(0,3584.5) ">Layer 1</title>
    <style stroke="null" transform="translate(-41.088890075683594,27.39259147644043) translate(-247.6173553466797,172.63462829589844) translate(3494.5,0) translate(0,3584.5) " type="text/css">.st0{fill-rule:evenodd;clip-rule:evenodd;}</style>
    <style stroke="null" transform="translate(-41.088890075683594,27.39259147644043) translate(-247.6173553466797,172.63462829589844) translate(3494.5,0) translate(0,3584.5) " type="text/css">.st0{fill-rule:evenodd;clip-rule:evenodd;}</style>
    <style stroke="null" transform="translate(-41.088890075683594,27.39259147644043) translate(-247.6173553466797,172.63462829589844) translate(3494.5,0) translate(0,3584.5) " type="text/css">.st0{fill-rule:evenodd;clip-rule:evenodd;}</style>
    <style stroke="null" transform="translate(-41.088890075683594,27.39259147644043) translate(-247.6173553466797,172.63462829589844) translate(3494.5,0) translate(0,3584.5) " type="text/css">.st0{fill-rule:evenodd;clip-rule:evenodd;}</style>
    <style stroke="null" transform="translate(-41.088890075683594,27.39259147644043) translate(-247.6173553466797,172.63462829589844) translate(3494.5,0) translate(0,3584.5) " type="text/css">.st0{fill-rule:evenodd;clip-rule:evenodd;}</style>
    <style stroke="null" transform="translate(-41.088890075683594,27.39259147644043) translate(-247.6173553466797,172.63462829589844) translate(3494.5,0) translate(0,3584.5) " type="text/css">.st0{fill-rule:evenodd;clip-rule:evenodd;}</style>
    <style stroke="null" transform="translate(-41.088890075683594,27.39259147644043) translate(-247.6173553466797,172.63462829589844) translate(3494.5,0) translate(0,3584.5) " type="text/css">.st0{fill-rule:evenodd;clip-rule:evenodd;}</style>
    <style stroke="null" transform="translate(-41.088890075683594,27.39259147644043) translate(-247.6173553466797,172.63462829589844) translate(3494.5,0) translate(0,3584.5) " type="text/css">.st0{fill-rule:evenodd;clip-rule:evenodd;}</style>
    <style stroke="null" transform="translate(-41.088890075683594,27.39259147644043) translate(-247.6173553466797,172.63462829589844) translate(3494.5,0) translate(0,3584.5) " type="text/css">.st0{fill-rule:evenodd;clip-rule:evenodd;}</style>
    <style stroke="null" transform="translate(-41.088890075683594,27.39259147644043) translate(-247.6173553466797,172.63462829589844) translate(3494.5,0) translate(0,3584.5) " type="text/css">.st0{fill-rule:evenodd;clip-rule:evenodd;}</style>
    <style stroke="null" transform="translate(-41.088890075683594,27.39259147644043) translate(-247.6173553466797,172.63462829589844) translate(3494.5,0) translate(0,3584.5) " type="text/css">.st0{fill-rule:evenodd;clip-rule:evenodd;}</style>
    <style stroke="null" transform="translate(-41.088890075683594,27.39259147644043) translate(-247.6173553466797,172.63462829589844) translate(3494.5,0) translate(0,3584.5) " type="text/css">.st0{fill-rule:evenodd;clip-rule:evenodd;}</style>
    <style stroke="null" transform="translate(-41.088890075683594,27.39259147644043) translate(-247.6173553466797,172.63462829589844) translate(3494.5,0) translate(0,3584.5) " type="text/css">.st0{fill-rule:evenodd;clip-rule:evenodd;}</style>
    <!-- Created with UXWing SVG Editor - https://uxwing.com/svg-icon-editor/ -->
    <!-- Created with UXWing SVG Editor - https://uxwing.com/svg-icon-editor/ -->
    <!-- Created with UXWing SVG Editor - https://uxwing.com/svg-icon-editor/ -->
    <!-- Created with UXWing SVG Editor - https://uxwing.com/svg-icon-editor/ -->
    <!-- Created with UXWing SVG Editor - https://uxwing.com/svg-icon-editor/ -->
    <!-- Created with UXWing SVG Editor - https://uxwing.com/svg-icon-editor/ -->
    <!-- Created with UXWing SVG Editor - https://uxwing.com/svg-icon-editor/ -->
    <!-- Created with UXWing SVG Editor - https://uxwing.com/svg-icon-editor/ -->
    <!-- Created with UXWing SVG Editor - https://uxwing.com/svg-icon-editor/ -->
    <!-- Created with UXWing SVG Editor - https://uxwing.com/svg-icon-editor/ -->
    <g stroke="null" id="svg_122">
     <g stroke="null" id="svg_123" transform="matrix(1.1773756417779282,0,0,1.1773756417779282,0,0) ">
      <polygon stroke="null" class="st0" points="2907.700656890869,3384.2448081970215 2945.690647125244,3421.9047203063965 2945.690647125244,3397.6647300720215 3030.580539703369,3397.6647300720215 3030.580539703369,3370.8246421813965 2945.690647125244,3370.8246421813965 2945.690647125244,3346.5846519470215 2907.700656890869,3384.2448081970215 " id="svg_124" fill="#ffffff"/>
     </g>
    </g>
   </g>
  </g>
 </g>
</svg>